<svg xmlns="http://www.w3.org/2000/svg" viewBox="0 0 512 512" fill="none">
  <defs>
    <linearGradient id="reva-bg" x1="64" y1="48" x2="448" y2="464" gradientUnits="userSpaceOnUse">
      <stop stop-color="#0f172a"/>
      <stop offset="1" stop-color="#1e1b4b"/>
    </linearGradient>
    <linearGradient id="reva-glow" x1="128" y1="96" x2="384" y2="416" gradientUnits="userSpaceOnUse">
      <stop stop-color="#3b82f6"/>
      <stop offset="0.55" stop-color="#6366f1"/>
      <stop offset="1" stop-color="#8b5cf6"/>
    </linearGradient>
    <linearGradient id="reva-r" x1="176" y1="128" x2="352" y2="384" gradientUnits="userSpaceOnUse">
      <stop stop-color="#ffffff"/>
      <stop offset="1" stop-color="#dbeafe"/>
    </linearGradient>
    <filter id="reva-soft" x="-20%" y="-20%" width="140%" height="140%">
      <feGaussianBlur stdDeviation="8" result="blur"/>
      <feMerge>
        <feMergeNode in="blur"/>
        <feMergeNode in="SourceGraphic"/>
      </feMerge>
    </filter>
  </defs>
  <rect width="512" height="512" rx="112" fill="url(#reva-bg)"/>
  <circle cx="384" cy="128" r="56" fill="url(#reva-glow)" opacity="0.35" filter="url(#reva-soft)"/>
  <path d="M168 352V160h72c48 0 80 28 80 72 0 28-14 50-38 62l52 58h-64l-46-54h-18v54h-38z" fill="url(#reva-r)"/>
  <path d="M236 208h-30v48h30c22 0 36-12 36-24s-14-24-36-24z" fill="#0f172a" fill-opacity="0.85"/>
  <path d="M352 120l16 8-16 28-16-8 16-28z" fill="#93c5fd"/>
  <path d="M368 108l8 4-8 14-8-4 8-14z" fill="#c4b5fd"/>
  <path d="M344 132l6 3-6 10-6-3 6-10z" fill="#60a5fa"/>
</svg>
